# xmcd
#
# Track frame offsets:
#	151
#	11337
#	24608
#	33865
#	43461
#	55125
#	68710
#	82486
#	92868
#	105237
#	114891
#	126058
#	139387
#	148735
#	158417
#	170135
#	183876
#	197860
#	208203
#	220663
#
# Disc length: 3080 seconds
#
# Revision: 1
# Processed by: cddbd v1.5.2PL0 Copyright (c) Steve Scherf et al.
# Submitted via: audiograbber 1.83.01
#
DISCID=200c0614
DTITLE=Terri Williams - Sings The Songs Of Juanita Hutson Vol 1
DYEAR=1999
DGENRE=Country
TTITLE0=I Don앖 Want To Be Happy Alone
TTITLE1=A Mother압 Love
TTITLE2=I았e Lost My Love For You
TTITLE3=My Pride Cost Me You
TTITLE4=Oh How I Do Miss You
TTITLE5=I앐 Telling You
TTITLE6=You Are The One
TTITLE7=You Don앖 Love Me Anymore
TTITLE8=I Haven앖 Missed A Thing
TTITLE9=Summertime Sweetness
TTITLE10=I Don앖 Want To Be Happy Alone
TTITLE11=A Mother압 Love
TTITLE12=I았e Lost My Love For You
TTITLE13=My Pride Cost Me You
TTITLE14=Oh How I Do Miss You
TTITLE15=I앐 Telling You
TTITLE16=You Are The One
TTITLE17=You Don앖 Love Me Anymore
TTITLE18=I Haven앖 Missed A Thing
TTITLE19=Summertime Sweetness
EXTD=
EXTT0=
EXTT1=
EXTT2=
EXTT3=
EXTT4=
EXTT5=
EXTT6=
EXTT7=
EXTT8=
EXTT9=
EXTT10=
EXTT11=
EXTT12=
EXTT13=
EXTT14=
EXTT15=
EXTT16=
EXTT17=
EXTT18=
EXTT19=
PLAYORDER=
